HIERARCHY
ROOT Hips
{
    OFFSET 0.000000 0.000000 0.000000
    CHANNELS 6 Xposition Yposition Zposition Zrotation Xrotation Yrotation
    JOINT Spine
    {
        OFFSET 0.000001 7.292995 0.000000
        CHANNELS 3 Zrotation Xrotation Yrotation
        JOINT Spine1
        {
            OFFSET -0.000000 20.255388 0.000001
            CHANNELS 3 Zrotation Xrotation Yrotation
            JOINT Neck
            {
                OFFSET 0.000001 20.786594 0.000000
                CHANNELS 3 Zrotation Xrotation Yrotation
                JOINT Head
                {
                    OFFSET 0.000003 12.530788 1.776080
                    CHANNELS 3 Zrotation Xrotation Yrotation
                    End Site
                    {
                        OFFSET 0.000000 17.760757 0.000000
                    }
                }
            }
            JOINT LeftShoulder
            {
                OFFSET 3.550532 15.465697 -0.908801
                CHANNELS 3 Zrotation Xrotation Yrotation
                JOINT LeftArm
                {
                    OFFSET 12.513301 -0.000005 0.000001
                    CHANNELS 3 Zrotation Xrotation Yrotation
                    JOINT LeftForeArm
                    {
                        OFFSET 24.225992 0.000005 0.000000
                        CHANNELS 3 Zrotation Xrotation Yrotation
                        JOINT LeftHand
                        {
                            OFFSET 20.711395 -0.000004 0.000000
                            CHANNELS 3 Zrotation Xrotation Yrotation
                            JOINT LeftHandThumb1
                            {
                                OFFSET 2.121964 -2.411326 3.375861
                                CHANNELS 3 Zrotation Xrotation Yrotation
                                JOINT LeftHandThumb2
                                {
                                    OFFSET 2.803212 -0.000001 -0.000002
                                    CHANNELS 3 Zrotation Xrotation Yrotation
                                    JOINT LeftHandThumb3
                                    {
                                        OFFSET 2.395929 0.000000 0.000000
                                        CHANNELS 3 Zrotation Xrotation Yrotation
                                        End Site
                                        {
                                            OFFSET 2.127676 0.000000 0.000000
                                        }
                                    }
                                }
                            }
                            JOINT LeftHandIndex1
                            {
                                OFFSET 8.680776 0.000004 3.375861
                                CHANNELS 3 Zrotation Xrotation Yrotation
                                JOINT LeftHandIndex2
                                {
                                    OFFSET 4.218180 -0.000002 0.000001
                                    CHANNELS 3 Zrotation Xrotation Yrotation
                                    JOINT LeftHandIndex3
                                    {
                                        OFFSET 2.109090 0.000001 -0.000000
                                        CHANNELS 3 Zrotation Xrotation Yrotation
                                        End Site
                                        {
                                            OFFSET 1.872952 0.000000 0.000000
                                        }
                                    }
                                }
                            }
                            JOINT LeftHandMiddle1
                            {
                                OFFSET 8.680775 0.000001 1.118862
                                CHANNELS 3 Zrotation Xrotation Yrotation
                                JOINT LeftHandMiddle2
                                {
                                    OFFSET 4.640000 0.000002 -0.000000
                                    CHANNELS 3 Zrotation Xrotation Yrotation
                                    JOINT LeftHandMiddle3
                                    {
                                        OFFSET 2.530906 0.000005 0.000000
                                        CHANNELS 3 Zrotation Xrotation Yrotation
                                        End Site
                                        {
                                            OFFSET 2.247544 0.000000 0.000000
                                        }
                                    }
                                }
                            }
                            JOINT LeftHandRing1
                            {
                                OFFSET 8.198514 -0.000004 -1.118859
                                CHANNELS 3 Zrotation Xrotation Yrotation
                                JOINT LeftHandRing2
                                {
                                    OFFSET 4.218182 -0.000003 -0.000001
                                    CHANNELS 3 Zrotation Xrotation Yrotation
                                    JOINT LeftHandRing3
                                    {
                                        OFFSET 2.109086 0.000004 0.000001
                                        CHANNELS 3 Zrotation Xrotation Yrotation
                                        End Site
                                        {
                                            OFFSET 1.872952 0.000000 0.000000
                                        }
                                    }
                                }
                            }
                            JOINT LeftHandPinky1
                            {
                                OFFSET 7.716242 0.000005 -3.375859
                                CHANNELS 3 Zrotation Xrotation Yrotation
                                JOINT LeftHandPinky2
                                {
                                    OFFSET 3.374535 0.000004 0.000002
                                    CHANNELS 3 Zrotation Xrotation Yrotation
                                    JOINT LeftHandPinky3
                                    {
                                        OFFSET 1.687275 0.000002 -0.000001
                                        CHANNELS 3 Zrotation Xrotation Yrotation
                                        End Site
                                        {
                                            OFFSET 1.498360 0.000000 0.000000
                                        }
                                    }
                                }
                            }
                        }
                    }
                }
            }
            JOINT RightShoulder
            {
                OFFSET -3.550531 15.465694 -0.908802
                CHANNELS 3 Zrotation Xrotation Yrotation
                JOINT RightArm
                {
                    OFFSET -12.513298 -0.000004 0.000001
                    CHANNELS 3 Zrotation Xrotation Yrotation
                    JOINT RightForeArm
                    {
                        OFFSET -24.225996 -0.000002 -0.000000
                        CHANNELS 3 Zrotation Xrotation Yrotation
                        JOINT RightHand
                        {
                            OFFSET -20.711401 0.000005 0.000001
                            CHANNELS 3 Zrotation Xrotation Yrotation
                            JOINT RightHandThumb1
                            {
                                OFFSET -2.121970 -2.411334 3.375861
                                CHANNELS 3 Zrotation Xrotation Yrotation
                                JOINT RightHandThumb2
                                {
                                    OFFSET -2.803210 0.000003 -0.000004
                                    CHANNELS 3 Zrotation Xrotation Yrotation
                                    JOINT RightHandThumb3
                                    {
                                        OFFSET -2.395930 -0.000001 0.000002
                                        CHANNELS 3 Zrotation Xrotation Yrotation
                                        End Site
                                        {
                                            OFFSET -2.127676 0.000000 0.000000
                                        }
                                    }
                                }
                            }
                            JOINT RightHandIndex1
                            {
                                OFFSET -8.680779 0.000001 3.375860
                                CHANNELS 3 Zrotation Xrotation Yrotation
                                JOINT RightHandIndex2
                                {
                                    OFFSET -4.218180 0.000000 -0.000000
                                    CHANNELS 3 Zrotation Xrotation Yrotation
                                    JOINT RightHandIndex3
                                    {
                                        OFFSET -2.109090 0.000001 -0.000000
                                        CHANNELS 3 Zrotation Xrotation Yrotation
                                        End Site
                                        {
                                            OFFSET -1.872952 0.000000 0.000000
                                        }
                                    }
                                }
                            }
                            JOINT RightHandMiddle1
                            {
                                OFFSET -8.680780 0.000001 1.118860
                                CHANNELS 3 Zrotation Xrotation Yrotation
                                JOINT RightHandMiddle2
                                {
                                    OFFSET -4.640000 -0.000002 0.000001
                                    CHANNELS 3 Zrotation Xrotation Yrotation
                                    JOINT RightHandMiddle3
                                    {
                                        OFFSET -2.530910 0.000001 -0.000000
                                        CHANNELS 3 Zrotation Xrotation Yrotation
                                        End Site
                                        {
                                            OFFSET -2.247544 0.000000 0.000000
                                        }
                                    }
                                }
                            }
                            JOINT RightHandRing1
                            {
                                OFFSET -8.198519 0.000005 -1.118860
                                CHANNELS 3 Zrotation Xrotation Yrotation
                                JOINT RightHandRing2
                                {
                                    OFFSET -4.218180 -0.000006 0.000000
                                    CHANNELS 3 Zrotation Xrotation Yrotation
                                    JOINT RightHandRing3
                                    {
                                        OFFSET -2.109090 0.000001 -0.000000
                                        CHANNELS 3 Zrotation Xrotation Yrotation
                                        End Site
                                        {
                                            OFFSET -1.872952 0.000000 0.000000
                                        }
                                    }
                                }
                            }
                            JOINT RightHandPinky1
                            {
                                OFFSET -7.716248 -0.000002 -3.375859
                                CHANNELS 3 Zrotation Xrotation Yrotation
                                JOINT RightHandPinky2
                                {
                                    OFFSET -3.374540 0.000000 0.000000
                                    CHANNELS 3 Zrotation Xrotation Yrotation
                                    JOINT RightHandPinky3
                                    {
                                        OFFSET -1.687270 0.000004 0.000001
                                        CHANNELS 3 Zrotation Xrotation Yrotation
                                        End Site
                                        {
                                            OFFSET -1.498360 0.000000 0.000000
                                        }
                                    }
                                }
                            }
                        }
                    }
                }
            }
        }
    }
    JOINT LeftUpLeg
    {
        OFFSET 8.880376 -0.000000 -0.000000
        CHANNELS 3 Zrotation Xrotation Yrotation
        JOINT LeftLeg
        {
            OFFSET -0.000001 -40.387405 -0.000001
            CHANNELS 3 Zrotation Xrotation Yrotation
            JOINT LeftFoot
            {
                OFFSET -0.000001 -36.911297 -0.000001
                CHANNELS 3 Zrotation Xrotation Yrotation
                JOINT LeftToeBase
                {
                    OFFSET -0.000002 -5.772240 13.320604
                    CHANNELS 3 Zrotation Xrotation Yrotation
                    End Site
                    {
                        OFFSET 0.000000 0.000000 3.552151
                    }
                }
            }
        }
    }
    JOINT RightUpLeg
    {
        OFFSET -8.880376 0.000000 0.000000
        CHANNELS 3 Zrotation Xrotation Yrotation
        JOINT RightLeg
        {
            OFFSET -0.000001 -40.387390 0.000000
            CHANNELS 3 Zrotation Xrotation Yrotation
            JOINT RightFoot
            {
                OFFSET 0.000002 -36.911297 -0.000001
                CHANNELS 3 Zrotation Xrotation Yrotation
                JOINT RightToeBase
                {
                    OFFSET 0.000001 -5.772238 13.320600
                    CHANNELS 3 Zrotation Xrotation Yrotation
                    End Site
                    {
                        OFFSET 0.000000 0.000000 3.552151
                    }
                }
            }
        }
    }
}
MOTION
Frames: 4
Frame Time: 0.013889
21.097166    83.928513    17.624634    2.313501    8.825331    -0.075219    0.406994    -22.965010    1.043024    1.119579    15.507263    0.626259    -4.683856    -9.181831    -3.958208    0.360691    3.636248    -3.259195    -2.939199    6.267966    -1.738660    -63.288990    41.095348    -12.036082    -4.519995    -17.090134    -15.056218    -8.337807    4.287638    7.451652    29.232742    35.899788    -41.503414    -12.650427    -0.320030    23.315399    -0.000000    0.000000    -0.000000    -6.942657    17.876402    -2.020499    -6.605941    -0.000002    0.000005    -6.605946    0.000000    -0.000002    -7.371858    8.926813    -0.930458    -7.282093    0.000003    0.000000    -7.282086    -0.000002    -0.000000    -7.713996    -8.919874    -1.782739    -7.620165    0.000001    0.000001    -7.620164    0.000002    -0.000002    -8.362123    -17.820759    -3.734858    -7.958245    0.000000    -0.000002    -7.958241    -0.000001    0.000001    7.175573    6.313525    3.189452    55.214401    37.423233    12.735292    4.317178    -9.443158    24.708252    16.538620    11.043912    -4.159003    -36.505856    30.459257    43.847691    15.102939    -1.376169    -23.279079    -0.000000    0.000000    -0.000000    21.123047    16.861374    12.356421    20.174438    0.000000    -0.000000    20.174431    0.000007    -0.000001    16.158989    8.649926    6.879846    15.970256    -0.000000    -0.000003    15.970260    -0.000002    0.000007    14.034246    -8.735569    2.991017    13.868151    -0.000001    -0.000008    13.868175    0.000004    0.000003    12.353430    -17.609215    5.424557    11.766052    -0.000003    -0.000013    11.766091    0.000001    0.000005    -2.456715    -7.094974    5.243599    -0.000000    7.530361    0.000000    1.769480    -2.957213    -11.159432    0.000000    1.612175    -0.000001    -0.567654    -5.168824    -10.725307    0.000000    4.626072    -0.000001    9.784125    -6.728319    6.465362    -0.000000    2.667219    0.000000    
21.086533    83.925964    17.642670    2.404653    8.800336    -0.164896    0.400835    -22.950060    1.027878    1.154860    15.504133    0.603568    -4.676929    -9.181852    -3.941988    0.335668    3.624294    -3.242357    -2.908049    6.303715    -1.801197    -63.146343    41.570538    -12.294276    -4.513169    -16.912779    -15.180366    -8.485861    4.322637    7.608187    29.336273    35.825058    -41.590595    -12.601751    -0.299055    23.315662    -0.000000    0.000000    -0.000000    -6.733235    17.883743    -2.098767    -6.406485    -0.000002    0.000003    -6.406498    -0.000003    -0.000004    -7.198557    8.930216    -0.964339    -7.110839    -0.000000    0.000003    -7.110846    -0.000002    0.000002    -7.554977    -8.923136    -1.769001    -7.463019    -0.000003    0.000001    -7.463012    -0.000000    0.000002    -8.212017    -17.827126    -3.710746    -7.815193    0.000000    -0.000001    -7.815188    0.000001    0.000001    7.160079    6.308278    3.190985    55.066021    37.544254    12.865149    4.380515    -9.473661    24.957682    16.839073    11.091917    -4.215868    -36.590332    30.394352    43.866703    15.075669    -1.364443    -23.279743    -0.000000    0.000000    -0.000000    20.932417    16.881729    12.475595    19.990873    0.000002    -0.000006    19.990871    -0.000003    0.000004    16.052252    8.654515    6.927848    15.864609    -0.000001    -0.000005    15.864615    0.000000    0.000003    13.966829    -8.738087    3.023273    13.801490    -0.000005    0.000002    13.801482    0.000001    -0.000002    12.324407    -17.611055    5.500759    11.738367    0.000006    0.000005    11.738358    -0.000002    0.000002    -2.539550    -7.072080    5.253275    -0.000000    7.571120    0.000002    1.898306    -2.965459    -11.068089    0.000000    1.610232    -0.000001    -0.648489    -5.193939    -10.633072    -0.000000    4.738920    0.000000    9.741646    -6.826855    6.443804    0.000000    2.690890    -0.000000    
21.072525    83.920395    17.659512    2.480669    8.785254    -0.260404    0.388210    -22.940931    0.995881    1.201750    15.504938    0.562682    -4.681093    -9.205622    -3.923244    0.310026    3.604039    -3.219374    -2.870001    6.349438    -1.878986    -62.989494    42.037636    -12.521579    -4.509859    -16.753632    -15.303142    -8.686961    4.377595    7.710450    29.332876    35.826870    -41.629486    -12.605724    -0.300771    23.315636    -0.000000    0.000000    -0.000000    -6.533129    17.890541    -2.175410    -6.215949    0.000007    0.000002    -6.215947    0.000000    -0.000002    -7.039093    8.933267    -0.996690    -6.953292    0.000001    0.000005    -6.953299    0.000004    -0.000001    -7.412220    -8.926017    -1.773173    -7.321978    -0.000002    -0.000002    -7.321968    -0.000001    0.000002    -8.081314    -17.832577    -3.723369    -7.690646    -0.000001    -0.000000    -7.690651    0.000001    -0.000002    7.157691    6.298307    3.222691    54.884804    37.680038    13.015062    4.342304    -9.323058    25.113350    17.159203    11.267167    -4.300530    -36.582882    30.398874    43.870647    15.084241    -1.368134    -23.279539    -0.000000    0.000000    -0.000000    20.827549    16.892849    12.513320    19.889917    -0.000004    -0.000003    19.889919    0.000000    -0.000000    15.988748    8.657218    6.941025    15.801786    0.000004    0.000003    15.801783    0.000003    -0.000004    13.922566    -8.739749    3.052742    13.757715    0.000002    -0.000000    13.757719    0.000005    0.000003    12.298543    -17.612679    5.565340    11.713634    0.000003    -0.000007    11.713652    -0.000002    0.000002    -2.602462    -7.052405    5.272407    0.000000    7.593839    -0.000000    1.969912    -2.982536    -11.004427    -0.000000    1.610207    0.000000    -0.709791    -5.209318    -10.543267    0.000000    4.801569    -0.000001    9.726071    -6.903862    6.467417    -0.000002    2.707423    0.000001    
21.062574    83.917290    17.678030    2.546967    8.760159    -0.328998    0.377371    -22.938265    0.968190    1.240482    15.524431    0.527285    -4.650671    -9.207841    -3.861600    0.304941    3.603522    -3.161740    -2.808182    6.400756    -1.999995    -62.684616    42.694828    -12.855607    -4.475714    -16.448292    -15.453200    -9.030224    4.547900    7.752934    29.279016    35.865475    -41.611366    -12.637033    -0.314270    23.315481    -0.000000    0.000000    -0.000000    -6.362396    17.896183    -2.175632    -6.053372    -0.000004    0.000003    -6.053364    0.000007    0.000004    -6.902142    8.935840    -0.991842    -6.817957    0.000003    0.000005    -6.817969    -0.000002    -0.000002    -7.289066    -8.928451    -1.772917    -7.200265    -0.000001    -0.000000    -7.200265    0.000001    -0.000002    -7.967901    -17.837244    -3.726342    -7.582564    -0.000002    0.000002    -7.582576    0.000002    -0.000001    7.173748    6.302042    3.241478    54.727875    37.774410    13.125065    4.309943    -9.177336    25.292397    17.329794    11.584710    -4.136092    -36.534851    30.433001    43.872780    15.109676    -1.379061    -23.278950    -0.000000    0.000000    -0.000000    20.733320    16.902803    12.558101    19.799213    0.000001    0.000003    19.799213    -0.000006    0.000005    15.930930    8.659691    6.958443    15.744574    -0.000001    -0.000007    15.744578    0.000000    0.000003    13.881673    -8.741260    3.082299    13.717255    -0.000002    -0.000003    13.717248    -0.000004    -0.000001    12.273704    -17.614233    5.629324    11.689949    0.000001    0.000014    11.689936    0.000000    0.000002    -2.660138    -7.027261    5.282300    0.000000    7.627811    -0.000000    2.008816    -2.985578    -10.950987    0.000000    1.604295    -0.000001    -0.767150    -5.209199    -10.463121    -0.000000    4.871712    -0.000000    9.717911    -6.981105    6.473276    0.000003    2.722362    -0.000001    
